<mxfile host="www.draw.io" modified="2020-02-16T02:46:43.901Z" agent="Mozilla/5.0 (Windows NT 10.0; Win64; x64) AppleWebKit/537.36 (KHTML, like Gecko) Chrome/79.0.3945.130 Safari/537.36" etag="WOAz2Cx4c4Ruj22LufOe" version="12.7.0" type="github">
  <diagram id="C5RBs43oDa-KdzZeNtuy" name="Page-1">
    <mxGraphModel dx="1422" dy="762" grid="1" gridSize="10" guides="1" tooltips="1" connect="1" arrows="1" fold="1" page="1" pageScale="1" pageWidth="827" pageHeight="1169" math="0" shadow="0">
      <root>
        <mxCell id="WIyWlLk6GJQsqaUBKTNV-0"/>
        <mxCell id="WIyWlLk6GJQsqaUBKTNV-1" parent="WIyWlLk6GJQsqaUBKTNV-0"/>
        <mxCell id="VrXKB7EYt3ZzOgZ4EBXm-12" value="" style="whiteSpace=wrap;html=1;aspect=fixed;glass=0;rounded=0;shadow=1;comic=1;treeFolding=0;" vertex="1" parent="WIyWlLk6GJQsqaUBKTNV-1">
          <mxGeometry x="125" y="430" width="550" height="550" as="geometry"/>
        </mxCell>
        <mxCell id="VrXKB7EYt3ZzOgZ4EBXm-6" style="edgeStyle=orthogonalEdgeStyle;rounded=0;orthogonalLoop=1;jettySize=auto;html=1;entryX=0.5;entryY=0;entryDx=0;entryDy=0;" edge="1" parent="WIyWlLk6GJQsqaUBKTNV-1" source="VrXKB7EYt3ZzOgZ4EBXm-0" target="VrXKB7EYt3ZzOgZ4EBXm-2">
          <mxGeometry relative="1" as="geometry"/>
        </mxCell>
        <mxCell id="VrXKB7EYt3ZzOgZ4EBXm-0" value="“120”，10进制" style="rounded=1;whiteSpace=wrap;html=1;fillColor=#d5e8d4;strokeColor=#82b366;" vertex="1" parent="WIyWlLk6GJQsqaUBKTNV-1">
          <mxGeometry x="340" y="30" width="120" height="60" as="geometry"/>
        </mxCell>
        <mxCell id="VrXKB7EYt3ZzOgZ4EBXm-4" style="edgeStyle=orthogonalEdgeStyle;rounded=0;orthogonalLoop=1;jettySize=auto;html=1;entryX=0;entryY=0.5;entryDx=0;entryDy=0;" edge="1" parent="WIyWlLk6GJQsqaUBKTNV-1" source="VrXKB7EYt3ZzOgZ4EBXm-2" target="VrXKB7EYt3ZzOgZ4EBXm-3">
          <mxGeometry relative="1" as="geometry"/>
        </mxCell>
        <mxCell id="VrXKB7EYt3ZzOgZ4EBXm-11" style="edgeStyle=orthogonalEdgeStyle;rounded=0;orthogonalLoop=1;jettySize=auto;html=1;" edge="1" parent="WIyWlLk6GJQsqaUBKTNV-1" source="VrXKB7EYt3ZzOgZ4EBXm-2" target="VrXKB7EYt3ZzOgZ4EBXm-7">
          <mxGeometry relative="1" as="geometry"/>
        </mxCell>
        <mxCell id="VrXKB7EYt3ZzOgZ4EBXm-2" value="字符串是否为空" style="rhombus;whiteSpace=wrap;html=1;fillColor=#fff2cc;strokeColor=#d6b656;" vertex="1" parent="WIyWlLk6GJQsqaUBKTNV-1">
          <mxGeometry x="340" y="150" width="120" height="80" as="geometry"/>
        </mxCell>
        <mxCell id="VrXKB7EYt3ZzOgZ4EBXm-3" value="报错退出" style="rounded=1;whiteSpace=wrap;html=1;fillColor=#f8cecc;strokeColor=#b85450;" vertex="1" parent="WIyWlLk6GJQsqaUBKTNV-1">
          <mxGeometry x="540" y="160" width="120" height="60" as="geometry"/>
        </mxCell>
        <mxCell id="VrXKB7EYt3ZzOgZ4EBXm-5" value="是" style="text;html=1;align=center;verticalAlign=middle;resizable=0;points=[];autosize=1;" vertex="1" parent="WIyWlLk6GJQsqaUBKTNV-1">
          <mxGeometry x="480" y="170" width="30" height="20" as="geometry"/>
        </mxCell>
        <mxCell id="VrXKB7EYt3ZzOgZ4EBXm-9" style="edgeStyle=orthogonalEdgeStyle;rounded=0;orthogonalLoop=1;jettySize=auto;html=1;entryX=0;entryY=0.5;entryDx=0;entryDy=0;" edge="1" parent="WIyWlLk6GJQsqaUBKTNV-1" source="VrXKB7EYt3ZzOgZ4EBXm-7" target="VrXKB7EYt3ZzOgZ4EBXm-8">
          <mxGeometry relative="1" as="geometry"/>
        </mxCell>
        <mxCell id="VrXKB7EYt3ZzOgZ4EBXm-13" style="edgeStyle=orthogonalEdgeStyle;rounded=0;orthogonalLoop=1;jettySize=auto;html=1;entryX=0.5;entryY=0;entryDx=0;entryDy=0;" edge="1" parent="WIyWlLk6GJQsqaUBKTNV-1" source="VrXKB7EYt3ZzOgZ4EBXm-7" target="VrXKB7EYt3ZzOgZ4EBXm-12">
          <mxGeometry relative="1" as="geometry"/>
        </mxCell>
        <mxCell id="VrXKB7EYt3ZzOgZ4EBXm-7" value="进制是否在2-32范围内" style="rhombus;whiteSpace=wrap;html=1;fillColor=#fff2cc;strokeColor=#d6b656;" vertex="1" parent="WIyWlLk6GJQsqaUBKTNV-1">
          <mxGeometry x="340" y="290" width="120" height="80" as="geometry"/>
        </mxCell>
        <mxCell id="VrXKB7EYt3ZzOgZ4EBXm-8" value="报错退出" style="rounded=1;whiteSpace=wrap;html=1;fillColor=#f8cecc;strokeColor=#b85450;" vertex="1" parent="WIyWlLk6GJQsqaUBKTNV-1">
          <mxGeometry x="540" y="300" width="120" height="60" as="geometry"/>
        </mxCell>
        <mxCell id="VrXKB7EYt3ZzOgZ4EBXm-10" value="否" style="text;html=1;align=center;verticalAlign=middle;resizable=0;points=[];autosize=1;" vertex="1" parent="WIyWlLk6GJQsqaUBKTNV-1">
          <mxGeometry x="480" y="304" width="30" height="20" as="geometry"/>
        </mxCell>
        <mxCell id="VrXKB7EYt3ZzOgZ4EBXm-14" value="进入算法" style="text;html=1;align=center;verticalAlign=middle;resizable=0;points=[];autosize=1;" vertex="1" parent="WIyWlLk6GJQsqaUBKTNV-1">
          <mxGeometry x="400" y="380" width="60" height="20" as="geometry"/>
        </mxCell>
        <mxCell id="VrXKB7EYt3ZzOgZ4EBXm-15" value="1" style="rounded=0;whiteSpace=wrap;html=1;" vertex="1" parent="WIyWlLk6GJQsqaUBKTNV-1">
          <mxGeometry x="140" y="673" width="40" height="40" as="geometry"/>
        </mxCell>
        <mxCell id="VrXKB7EYt3ZzOgZ4EBXm-16" value="2" style="rounded=0;whiteSpace=wrap;html=1;" vertex="1" parent="WIyWlLk6GJQsqaUBKTNV-1">
          <mxGeometry x="181" y="673" width="40" height="40" as="geometry"/>
        </mxCell>
        <mxCell id="VrXKB7EYt3ZzOgZ4EBXm-17" value="0" style="rounded=0;whiteSpace=wrap;html=1;" vertex="1" parent="WIyWlLk6GJQsqaUBKTNV-1">
          <mxGeometry x="222" y="673" width="40" height="40" as="geometry"/>
        </mxCell>
        <mxCell id="VrXKB7EYt3ZzOgZ4EBXm-22" style="edgeStyle=orthogonalEdgeStyle;rounded=0;orthogonalLoop=1;jettySize=auto;html=1;" edge="1" parent="WIyWlLk6GJQsqaUBKTNV-1" source="VrXKB7EYt3ZzOgZ4EBXm-18" target="VrXKB7EYt3ZzOgZ4EBXm-21">
          <mxGeometry relative="1" as="geometry"/>
        </mxCell>
        <mxCell id="VrXKB7EYt3ZzOgZ4EBXm-27" value="此时操作的是char&#39;1&#39;" style="text;html=1;align=center;verticalAlign=middle;resizable=0;points=[];labelBackgroundColor=#ffffff;" vertex="1" connectable="0" parent="VrXKB7EYt3ZzOgZ4EBXm-22">
          <mxGeometry x="0.2698" y="2" relative="1" as="geometry">
            <mxPoint x="-24" y="-10" as="offset"/>
          </mxGeometry>
        </mxCell>
        <mxCell id="VrXKB7EYt3ZzOgZ4EBXm-18" value="1" style="rounded=0;whiteSpace=wrap;html=1;" vertex="1" parent="WIyWlLk6GJQsqaUBKTNV-1">
          <mxGeometry x="344" y="672" width="40" height="40" as="geometry"/>
        </mxCell>
        <mxCell id="VrXKB7EYt3ZzOgZ4EBXm-19" value="" style="curved=1;endArrow=classic;html=1;exitX=0.5;exitY=0;exitDx=0;exitDy=0;entryX=0.5;entryY=0;entryDx=0;entryDy=0;" edge="1" parent="WIyWlLk6GJQsqaUBKTNV-1" source="VrXKB7EYt3ZzOgZ4EBXm-15" target="VrXKB7EYt3ZzOgZ4EBXm-18">
          <mxGeometry width="50" height="50" relative="1" as="geometry">
            <mxPoint x="181" y="580" as="sourcePoint"/>
            <mxPoint x="231" y="530" as="targetPoint"/>
            <Array as="points">
              <mxPoint x="240" y="600"/>
              <mxPoint x="330" y="620"/>
            </Array>
          </mxGeometry>
        </mxCell>
        <mxCell id="VrXKB7EYt3ZzOgZ4EBXm-20" value="取出第一位判断正负" style="text;html=1;align=center;verticalAlign=middle;resizable=0;points=[];autosize=1;" vertex="1" parent="WIyWlLk6GJQsqaUBKTNV-1">
          <mxGeometry x="220" y="590" width="120" height="20" as="geometry"/>
        </mxCell>
        <mxCell id="VrXKB7EYt3ZzOgZ4EBXm-21" value="" style="shape=image;verticalLabelPosition=bottom;labelBackgroundColor=#ffffff;verticalAlign=top;aspect=fixed;imageAspect=0;image=data:image/png,iVBORw0KGgoAAAANSUhEUgAAAKEAAAHkCAYAAABWs0/dAAAgAElEQVR4Ae2da3YkSa6je1l3/+vpHcyPngNVfUoIQdrDIyRFRJqf45cvAEajs5SV6p6e//zvPGcCvzyB//zy+ef4M4H/nSU8S/DrE/hYwv/85+zir3+Jv6SBatfOEv4lH/9ZrnmW8Fm+xF/cx9YSCpzvd86uak7ndfnVXvwOO5xVrOO6Xj3vvnNn/lWe60qD1/PyH6GfmlWc53z00zWQ4A5XHXQlV51375mpmXHX5you+R3P8+4nfxRf5aGZ/FkM79G2Orf9d8IE00zmFfOCwXZ56m5Tlxp5bOaJ0yaeeuYVe47Yc3BntuOQT+3Mow+OWBas51b9jut5fFl89Imx5K/Y1FB81xJWgjTmNfepp+0wnsfHpobHHcbzK75rznzXc6zn05/F6DiO3Kpd4QrjuPQ9Xj23wqWO4h9ZwqqZzH008+8g0gfLBbDkK9thPO++a3R5x1S+eN0L3rXdV30UZw29FbvCTYzH7q+cN8KkluK7l/BDxIZPA3kY+c52+MxnfI9ep9Xlu7PIdzzPd740vJZx1jhzxa5wE+Ox+yvnjTCppfjuJewOzMM6HPkO73l8LNzKdhjPu+8aXd4xld/xPN/50vNaxlmrzu9yHdfz7j/y7OypOmdrCSsBP8Trne949x3f5cFgHVf5iRvFXnO/0u1yHc/znS9Nr2Wcta6HLp/8nTix3Rkr+dRSPFzCD0DxR60f5hjPy6eW+SoWtnrIY8FkTD6tcLxZU1zVqlzFzZx41eN51/a8eKM4a9U5sxxnV1qZ89j92RmzemopbpdwJnbqZwJXJpBLKI3/fGyi/bQ48Z+fnGcWPzSLfzfxylIfzpnA9gTKn4RSqQrb6odwJrAwgWrXzr8TLgzuQB43gbOEj5vlUbo4gbOEFwd3aI+bwFnCx83yKF2cwFnCi4M7tMdN4Czh42Z5lC5O4CzhxcE9gsbwsWgq5iWHJZ8c6ltW/5Ei/7EidkvgMeDqLtu/ohkNZlQbXWHEG9WuasJDm1iWnOwjH/SwnOVnrNacs+T7XeR7vCTwOJDfEdWtJUwBj92XeMYcmDZxHrv/KE3ORxtb6XsN3sgKX3HIYTuNUb2qKVflb/S7pfOFdN8FyFcaXsu610yv6ndrCU3rw60EwYxqYCrrPPeFzbjiV7iKRw67yls9E5z086WGpU6c1nv02ozn2I+ffiyGFzLny+S+OB67v1Gr7nJpCWeXrw7ye3d+8mbxI3T8DPf/mev6H8nJ9d6oYb3mflWvcs655PsCuS+xKlaOlwMTRx4N8Nh/69V9Li0h55WCo+YgFnZFq8IUUjc/MZ3nvrgeu5+16hxy8NKioby/8NLCJ58x+butfyP3Jeyx+7OaN5U8q1V3eugSVgfY+a3b8TKfcSeYOI/lV6+0HFfFK+elhutkbRSPavQhTOKofbFaCl+Mzv+n2T9Ux91T+6NY9ru1hHlhj93/p9+1P8pGvFHN7nXj7vAc6/7OHcDCx5J3K98fYXm7/KjunNZnmWTxAZPDkseSd1vVyGEdL//fx2fzmZNTFQCkZSDJ8Tx+cqsYrFvHdXnHVP4Kr8JUuUp/NSc9PdhV3gz3MD1bkNmZj6hXfW/9JHxEE0fjiSbgP61+qK2zhD806HNMP4GzhP1sTuWHJnCW8IcGfY7pJ3CWsJ/NqfzQBM4S/tCgq2MYPhaMYl5yWPLJob5tf/hvwlV/1V22/3Y8GsyoVjVEbsSjBnbVwpPtHjBer3Jev+rTB1Y67mc8ql3t4eZ3hJeFrhPzXh/3/vg/gw/lx6WAx+4/SpOzU5t8ZxOfsfc3qnX6XV5aI72q5lqjelVTrsq75hd/8Tt/4Tw4qPrd/knoPVWC1Ec1MJWteFWu4pJLfMbCkcPC9ZrnZn6lg5Zq/qYWtcw7f7dW4d/iJyEXuzo0+J2VbvV0+QqrXOJHcdYqfneO5ysd6tSw5NOO6qNa6rRxM98W/w2F6h5P85Owao4ZjGpg3CbeY/fFybjLuX76aKRFS3l/k08Mn9jtqOa4Z/erezzFElaN+TBndcfKT7zH8qvXNRzv+c53vPvgyWEzX8UzrDjCJA6tZ7VVv1tLmAIeu8+AVgaxwkvMTDfxGTu/qlU551S+OPCwwuFjk6s875Vacobxu/xxzMCqoY5q3XCcgw+W2C21mV3hJMZj/Nk5s7p09GBn+NX6o/VWz70XV/W99ZPw3gYO/0zgLOHZgV+fwFnCX/8Ep4GzhGcHfn0CZwl//ROcBs4S/uIOMHwsrSjmJZd2Vk/8Tay/ofPrGfdvgN+fyPvrxO2/HTOQSowrgCGeWfCV5qg20l3hgXEdcrKPfNDDStv9KvZcYrd687u4vyXyGHB1j60lTIGMrwwtNTx237Vn41jhgcFW+l6bnQm/4pDDdlpVnRzWucpVecd8+L547t8Avz9R9bu1hNliKfjvJata8qt4xBvVXCtxGQtLDut8/FENDLbDKp8vHCx1Yqxruu/1Kk/9GW3V76UllFApZv+UVfXZUEacUS11EzuKs4ZWl6eedoSnhk0usdfdVz1jOK9mq3tcWkIu7oLuXxla8jnjEVqu7X6nnRjvpfLBp0VfeX8rDbDUHO8+9Ve1uks+D11CHxZ+HljFVWPgRjUwaZPjsfzqRcOx5GbWOe7DI4fNfBeTl00uuSrvvGfzq363ljAFMvYLj2ojnPPcFydj13E/cRl32MRl7Lz0hQWPFQYf2/G6OhqqOybj1H3W2O9Aj1tL2A0EMSwDqg4Eg3Us/koNTGfRGvWQGI/xO/3VPOdjV3kz3KP1Zuc9ql71vb2Ej2rm6PydEzhL+Hd+96e69VnCp/ocf2czZwn/zu/+VLc+S/hUn+PvbOYs4S9+d4aPpRXFvOSw5LHkL1t+UYy9LHSdqLvks/23YwZSitlAq3oeTryqCX7FjjThgyGWJSf7yAc9LGf5GV6r6o695HMn7CWR+0h5R6ltLWEKzOKVdkcao9pIe4UHBvsxjPg4XhudR034ikMOCz5t1jOu8DPMJ4e7YT8LP+tU/W4tYbabghknfiUeaYxqrp24jIUlh3U+/qgGBtthlc8XDpY6MZa8bPVQr2pfcuLn+wXwc0F1l0tL2F2efHXQyjU7HrorGsKkzijOGvwqPzp/hKeG7XRG9VGt0/uSZ5GxX4o/F1T3uLSEtFwJrtTAuB1pgVvBCJs4j92vsJw1q1U4tLFoKPbXue47z/PoZG45zp+Cv7iI1R2fYgmrxqoBX8U5T371Puo8PwtNctjMV/EMK44wiUPrxrJ42BvAzySqfreWMAU8dl/Xybi7YuI8dv9RmtmHn+H+znlg4WPJu5Xvj7C8npdP3vXAUCMeWhYPOwR/b7G8i46sCl0rXL7ijGorevAdS646z3Hpr/AqTJVL7Z2YvrE73BF2S4/lw46Ev7lW9b31k/Cb+zvyf8EEzhL+BR/52a94lvDZv9Bf0N9Zwr/gIz/7Fc8S/uIXYvhYWlHMS84tteQ5Ztl/l7+YzIYyq1cDW+GAqfhVDrxs94Cp6qNahZ/l6AMrvPsr8eyMYV1z4B0Cv7eYd9ZpW387ToFZvHKdFQ0w2Jlu4jL+uPi/y7lbG50trXv0nOt+d2Z33g1+8A/iDfabE9W9tpYw+3NB9xO3E1c65LAzvcRlLD45rGuSw3qt8zus8vmmBnXPk8N6DX9UA/Nh33EJq8uTw34ZwmIgbj6ecz9xHiduFO/U/Iz0U8fr1LBec9/r7guTsfOWfM2Wd4nwPaDqHt/2k7A6bHStCp+5jDu9xHnsvvgeu5+17izHwcdSU+xvp5U8x3nN80u+/8Pt/hL5saDqHk+xhFVjurry1TsbS+p5XOlRH9VGZ8Kn58RSx1IfxaOa8xNH7YvlJ+AvL6B6qvrdWsIU8Nj97rAvg/k32OElttKrzh7xrtbybOmghfVePOdceFV9peZaU/8dlpChMpy8NPlqoIkldg4+NbfUVrVX8CPMqOZ9zXz6xc7wq/VLeu+yhKtDOrgzgWoC1T88W38cV6IndyawM4GzhDvTOthvmcBZwm8Z6xHdmcBZwp1pHey3TOAs4beMdU2U4WNhKeYlJ0vOrde3/Sf4mzH3yt63/2LSDcXz+HlYF4OXzcdrVT3xxM4jlxaM58lhvXaPLz092PQzdlzWFG89zBW7RX4sOO8l9a0lTAGP3f8QXrzwjJf1lZEkJ2PvL2sZr5wHRtyKTw4LPu2oXtWUq/Kp+xEvfo+S+8Bk1e/WEmYvlSCYUQ1MZZOXccXJXHIyFp4cFo2Myc9sx1M+39SinnnimTa4Jatl/MWFrO5yaQmvDm02pLJB+4gzPvXUGcVVTbnMo93ZEZ4adldjxuv0PvMs3i8uH71Ud7m0hCNB1aqD4HR2hbOCqc53nvsV1vtLrNfcB5cWfeX9da778D2HRuYux7+8iNUdn2IJq8aqIV/FOU9+9T7qPD8LTXLYzHex8skBS21Ud+yHzwJibwDfn6j63VrCFMhYV6hyo6sl3mP3d7R3eI51f+c8sPCx5N3K90dYXs/juxY52RHHcTf+Ly4gfWdPW0uIyGgA3dDyYGK03FJbOc+x7nd6M8wKzzVmvvT0YGf41fqj9VbPvRdX9b29hPc2cfh/9wTOEv7d3/8pbn+W8Ck+w9/dxFnCv/v7P8XtzxI+xWf4u5s4S/iL35/hY2lFMS85LPnkUH9FW91l+2/Ho8GMaqOBzXizeqW9wgGTfPKyj3rQwkrX/YxHtUf19Bs6ea+Pe+flR42lgMfuP0pzR8f7XukFDBZ+xuRXrLgVnxy20/K6+8JnTK7Kd/rnf4GhnczXgg/V/a+ocZS8jMUmh/XcWL2uuo4jlM/X6/Kpd/mZdvLK+IE/1Uv9xWR1l+0/jnXW1aHN+swGOQc741OvdKjJej19zvK8czt/hKeGXdFIbMadRpt/tyXkoj4Y91XPGE5nK3zmMl7Vcp772eeo1p3lGvCx1BT722klz3Fe8/ySzwKmXSI/FlTd49JPQtpyQfdVzxhOZTts5jOutKqznSe/eme87qzk+VlwyGEzX8UzLOcmDq0vluX7h/Sl9NNB1e/WEqaAx+7/c9e1v1mOeKPaaHg7PMe6v3MHsPCx5N3K90dYXs/LJ+96YKgRT60WkWXETkmPB5R30TFVoTuey1ecUW1FD75jyVXnOS79FV6FqXKpvRPTN3aHO8I+Wm901iNrVd9bPwkf2czR+jsncJbw7/zuT3Xrs4RP9Tn+zmbOEv6d3/2pbn2W8Kk+x9/ZzFnCX/zuDB9LK4p5yWHJJ4f6tv3FX83Qa3WX7b8djwYzqtFEZTue5/ErfpUDL9s9YKgTu6V2r6UPrPTcz3hUu9zLYBaXNTeJea+Pe3/8n8XmUsBj959Zk5nRL7bq2WvwRlb4ikMO22l43f2qN3KJ67Q/8ovfeahxZ7Hqd/snoffggu4Lk7HzRv6IN6q5ZuIy9v6qGlqjGhhsh1U+XzhY6sSyqZcxmCrvOl/8d1rCq0P7MpAiGA10VEupxI7irKHV5amnHeGpYZNLnHXF/oJ7ZZt31F0e9pPwQ+yOoVXN+bBn9RHWue7Ts3PxE0e+smDTCqtcvpUG2Cu1jvOMeWbkvT10Cb8Ib/zorxpzLfkrGDiJ9Vh+9cLFOodcZx3rPnhy2Mx38Uo+NeE8q6363VrCFMiYi3d56m4Tm7GwVc410k98xo6valXOOZUvDjyscPjY5CrP6zVyM55zXsGv7rO1hLpkN5wuPxuM8/CTo/zug9aI22FGnCt9iPNIze/Q273XVXw1h+0lvHr44Z0JaAJnCc8e/PoEzhL++ic4DZwlPDvw6xM4S/jrn+A0cJbwF3eA4WOzFeWzRi7zyd2KL/ymYUt/Aq7ucvlvxwzIzyRXHeS49Ee8US11PB7xvCbfH695/l6fc7CuRw6rmvtV7PwtP+67xX0AOO8lyUtLiBD2Qygu57VR74nz2P3qjE53xss6OpnPGFxnha845LDJJ49V3f0qJpe41P4Sxzf6UvuhoOr315cw7+5Nui9cxsklTtwsXuWBq2yeAUb5fKnJOq/zEwcfXeKpfZcl7Abl+W5osyGlBjq7w06dKq40K9ysZ+rJJc8d3FJLjsfuV1w0tuw7LOFoMKPayqCSXw2+wlTaicvYOV5zvzrfee7DS4uG8v7C9Zz78MBVsdeW/XdZQh8WfjUk1VafDpv5jDv9xGXsPK+5L0zGznPfce6DIYcln9br7guXMbkqn7qf8cY3+eQ82Kn6vfTvhPTlgu6rnjGctInz2P2f0Lx6Hr3Bx5J3K796xOGlTux6WSNesu+2hNWAqtxsOM7Bdw452Z1nxLta2zkfLH1jyd9rL+ttzvHePpNf9X3XT8I84MQvMIGzhC/wkU6L3zqB85PwW8d7xFcmcJZwZUoH82UC//3vf//n75fiheAs4YWh/c0UXz7375nJWcJ7pncnl+FjU075rFW55C3HF/5C4ovn/vKZBTDvKMjlvx1XA6pyRR83KXhlg8Xvz24EisSqZp4Jr5C8K8U5WBcjh61qnrvkP3AJtZBXn/KOEqsKo0PAYx1b5byefuI9dl+8jFOLOHGzGB428eRnVryKSw6bOuSxXq9y1FUb1cF92s1F9J9+6X9qbjpVv5d+EiKE9T6qnNdnvvPdFy/jTitxszh1Ep/1Ku44yufrfOe5D6bKeW1UB/dpH7iEV38aVv1uL6GLuM9Fqxy1mU3uLO70ZjzVeSuN5FeYzI041LBwZ7FwiYF7yb7DEuZAMr5naJUWeqrxrgw/tTJ2japW5ZyTPvi0wimXL/zME1OH7/Fd/rssIYNy64NRfvdZ5VzFjXhVrcqN7uR49+GQw5JPW9WrHDzVRnVwn/bCt8l/F/T4U3fDqfrd/uPYzysFNy+aGhlzXpen7jaxHrsvTsZdzvUrXzpoYV3LcyM+ONl8nUfNc1N/89tIz5eu8qdnBoD7efryEjIERD3G94M6H6xbsFWO2syOuF3N8/izc2Z16ejBzvCr9W29CwuoXqrF89xqv+Cqvi8vIaLHvsgEvmkJtZA7z1nCnWkd7OcE/Cdf5X8CF5yzhAtDOpDbCVSL57lbRp85S9jP5lQmE/Clq/wJ/bN8lvBzFMfZnUC1eJ5b1TtLuDqpb8AxfGweoXzWyGU+ucvxxb+cSN8XrvJXe6jucvlvxwzIDydXHeS49Ec8asmZxfCqXryWda/Nztipcw7WueSwqrlfxc6f+lq+fKekW0C1fJ67Zdxm8l5CXFpChLAfQvFPmdduW/mTSVzGlfYfdu2lxixGZRUHPq34qSEMOWzFc1zWu1p3XsX/yMU3anFNwReu8hval3Q1g4ct4ZeTbPCZn8XZJDF2xlc9sbO400xeh6vOBCuNfKklrztvlO9qfsaHzwJibwDzRLV4mZupVP1uL6GLuO+Hd3nHVH7FI4eteJlLbBUrl3nXGdUchz/CU8N2nKwLV+Xgb1mWD7tF/gPOpcv4D7L2qvtsLWEKZKxjq1zdztdsxyOP/cqqo8Rm7KyqVuWckz74tMIply/8zBN7Hf9ZbC5dxrM+dcd8tpeQQblFtDqA2sh2PD8Df6RDLfUyBiebtYwd2/nOcR88OSz5tF53X7iMyVX51H10nIuX8ei8qt+tJUxxF3RfuIyTS5w4j93/Cc2r59EbfCx5t/KrRxxe1fHdOo+8537Kz6XLeNSH+s7n8hIyBEQ9xs/DqhisW+FmcaXlueSv1JyD77wrvnT0YGca+qArz6reitYuJpeuijtN9Z34cgn/3//93//Oe2bADlQLlYuUccVR7izh+Yfr0g+XaqFy6TLuOGcJzxL+2BJqKf1hSS8toQsdf38CDP8eu3/q/Qz+KJbtntmdnAf2LKFP5Zt9hv4o+83t3sg/cgl9BmcJb0b9+IQP3H2Gj/WafOWzRk72p5+VJVRPeY+ME5N3/Li7QHnJlQYYkA+HXOo5pvIrnufwK26XgyObj9ey7rXkjeIcfsbS/Rh49SuKogYenexz1EtbK2bRYVd2QFz6W7V5r4+ZSCgvOGsAPLbS8Fp30RkvNTLudBM3i9FZxYGX9eGLr9dzH0MulswxcLBew1ctH+WqfOI+40LjsxbObAeA09+qre44/T0hh7nl4liv4Y9qYCrrPPeFzbjiV7jkZbyq47gcujQzp1j5fB3nPPfBwFWcD7XMt/E3LKHOotcVW95RIir4M/qnwLHuw1euylMf2eShhR1xvVbpZH2k2dVGQxanq1PDgpvF4GSFvfSI170DwdEOJM37nPl554+7STAv2DWQuIy9uVHNcfgVPnMZw02buIwdP6vNhvoxxPjjVprw5Oc7qjkXHGd435f8jUXudqA713sd+dX9tv44zmESV42ptvp02Mxn3OknLmPnZc0HqJrHne8498GTw5JP63X3hVOcj3JVPnGfcaHxWQvnaZcw+vwygBxGxsklTpzH7gufMRppE+ex+6mpmi9Gxl5LX1jwWJbHbfKI4SeXvHD+kPfc1I8l5OzKvsQSMgRZnipHrbPOwRcW322nUeVHvK6mj+G16uPs5qSH7i7X8XlH6d7zuHbl7y6heql0Msc8PP9xk7yQN3D889+mYWFmSw9uZM8Snv8Cw6X/AoMv1WgRHdf5ZwnPEt69hFqu0dMtH/nlJRwd8s41BvXT9idm+sg7jfqdnXOWcDS9xX+xng15tT5p5eHl1b5WcaMGRxq5hNIp/2IyOuCda6Ph3Vtj+LLVo/yVWqVV5e7tP/nVGeQS6zFzICfO5SV85NDQqj6C16o6F0/rvFHNNRmMLHzP3eNLD92qH+W8FzDksOR37D19d9zR+R2H+1NH49ISMhAsYrLksF6r/MR57L5rVzqem/Gy7lwflHAMbMUKX3HIyVYPeaxjyGGzVuUdI3+l9yuYPMfjTk/9UgP/60tII1gfqvvUV2zyZrFrakDCu2VoIwsnMcrn6+epxuO+ch677/gqTx2bPT0qRr+y3Rnqlxq87SX0S7svQY/d57CZTU7GMz715FWxcpkXXzmG5D65zrpWYtDBrvTpevQFb8dmL4+MR3105zAD1Xm2lnA0mFGNw0Y2+cJWuZEGteRlDC7PcJyGpLgbJnnXgO88+fnyATJPjCaxW+99xafP77Cz86szdRfy8LeX0AeCLzH8tBw0suJUT5evsJ5LXsYdVrjqZWhuRxqqOVaairHyq0f17qlqylV51/A+/qs+bAm+1P79/+G95cb/D/DdHWZ89cu5YLeWEBJ2NIBRDb5s4jx2v8K6jvsj3qjmGpyXA0sMsXTRloWHjyUPD6s6LzkseVkecsSd5bwPa319yRcLKL0Kk7nuXPKJV9+eE+7yEjIEHwwHj2pgsI7FpyZLTnbnGfFGNc5YwYDtrIYtHbf5ATruLC/dlefzPPURC/BZa34yS98xlT/rITnMg7z4l5dwdvip3/8BHzFDPvZoAYXpnk9+8cfxiIde8nMJVT9LyLS+weYHqOJvOPaLZHVm5r4QiiDxGReULynHLy/h+e8Qnv8O4eoOaMFmz1nC81/fuvRf39pZwp1FPD8Jz0I+fCH5Kbf60/DSEs7ET30+AX0oho/l4/FTRHm9/pDDem3V93M6f0XLuf5TkvxMA5zugo8t/2Lih3Ti1WDIYTtu5sHL8njO89Rn1vmJ9Vpqj2qpsxpr2NJ1ywcgJ62ql9UzOpyf0/kd1/PO9f3wvOMrX1jm4LxLS8iwsByYMfmRTY7HnT/SU815K7HrJddrM1/ciq9c9wHI7/YJvjrP+/SPXfmOnfnw324J8+I+VPeFyzi5xImbxfB2znDOiKez8+VjyqomW2k4L88DL8zo8bMqf8TNGvxfX0K/tPtqeDa0vFTGlZ5jsu419xNXxcplXhrkq5qfkf4IT02WDylbxalLjAbxqv04T+fm2/xHdTNd6XVLqNrsyTt/zEGkvKAf4qKJy3iE9VrlV1qZy7jSUS5xGTvvaq3SQAtLL4r9/ViMf5fQ8/iuja/alYezRnZHVzq+H6k709I9krP174QMKW118M7QOmzmM67OVS5xGTvvaq3TqPTIyeYH8Bjc6h2Ed473hO/6nQ92xUpjtISqj55qBltLmOI+APeFyzi5xInzuPPhdtZ5wnjs/k6tO4u8dNHGuj65bhHgg4NLnnOwXZ662+5M8o5d8Z9mCRnC6tC6y7kOvrD42I7f5eHJ5nO1ljorMedj+fAju6O7gh2dpdru8zRLuNv4M+G7j/JTPXbnk390H+h2dve82RLqnO6p/mGc/nHsBx7//Bcbcgd2F/ss4fnPjr/8pSIX6krcLWH30/As4VnCp1lC/XHNApd/HHd/nj9jnotUln6r2moOjUfblfMfeebsvCtnXdHkJ6HOg//WS6hL+mW59K698oGSw/Cx2Zfyer03Ycg7L7VXYtft/BUdx3Q6nne8/LyHsJeXkOFUh3S1xBKD9wY95z4crF/Yfed4/uPSzX+CAa7ict5VK009WPl+Hn2RI756XsVz7cqvOLNcpeO55Pv9VRP20hIihOWgjMmPbHI8dl8aGSvnF8YXDv/jkpN4hKU2ugM1nVv1SA4Lnv6Vzz7JOTZ9YSrNxBFzl86C27GdluddL/sV7mFLmOJ+8I7vOvjYSscviy88/sclJzHY5JHHVueT63pUPl84sn5m+s5zDj514pnlHiM706jqIz3V/FHP+WwvoYukz1A8nweO4uSt6FUDEM/zVYx24sgnB1zXv/DdQw0LLs/w2H3hk4vGruUend3VE77T8jy61T22ljAFPHZfB2ZME52t8OSwFdcvii88vmzGXS1xGYtXPcLpSUtOeX/R8Jz72TM68O6xfvfO39XvdDLf3WN7CX1Y+JW4aqtPYmleefmzBzwWXheTl3Ws+1lzTvYjHo/7matqwqDt57svTMVVrspz7herHv/tk/M6+4W3EHQ6mZdU1e/WEmY/Luh+d1jyK5x0aN79CoseeKzzlPPY/Z0a2rLVI129erDue27EF46z5PMmp8sn7jPeWIQMTj4AACAASURBVMLujp9a4dDvilXf+VxeQobgolUuD8zYOfi6DH7a5CuuLu+8rF+tuU7VR5XTWXqwFUY516785M30Eu9xpZ85x8/85I7iqu/LSzhr7Gp9dAHVumfGe3S96+NqfqW/q9oV75HnrWiBOUvY/I/6aED+MLCZdc4j/J88b3YW9dm9wK3at15CDWt1EImrBp2YKq549+SqMzx3j3bFde3Or3jkOs4oryVU3Z+n++NYzY0ukRfwy8x4Xd013O/wnnf8I3zXrvxHnIFGpV/lwLutcCu5H1tCmvGmd3z4ne20Ovwo32mRH3FVe/TzbOfN+tmts4Q+u+FPQg7YGTQctzt8YZ3b+Z1mh+/ynQ75jud5sCPLvwthE6u8fyBit5yZ3O3Yfk2C5k9ZvyN9t0tYNQVJluGQI3brGuAq6xzq4nrefdW6hzMTT77SRcs5+Ko5t/Lhj6z09GAdSw5Lj36WasTOveTbEoqP7k/Y6h5bS6gm9TAsLDm/hB8G74Mc/8c10JFFK3WIQ+ZLCGZXY9YLepWl99Qg7/ZLs8U8K32/E3zlqvOolzYWEEx15nfkynuoieoiowbAY6uL+GFogRtZNOGggyUv2z2J7eKOT148Hj+38h0LR1b5fLNO7Bp+hvIey3dt+EvW7uT41P+u2O/C+ds/CX1Q7kuQxv0gcrKzp9JTjte1Rnp5fhWj2fWkuj95dsaJdy41LLVR7PrCeSz/0hN3So084xGxznAdvwvnby1hCuQQOdBx3oD87plpVZojLT+34tJLda50M+966aMPB4uOYn/p23Puq+5nqOYxPjrL9oeX0PuiZ78L9e0l9GHhIyarw/wgDsc6Fl/47hlpSbN6kpOx99KdXeXhpUVfvVQ8ctiq54qrc9DOM6nNND/PGsz4ExPLX525k3NdfO5DLFsu4cpBH+TiYhzSafjhlUYOdVfPNenBNdxXPc9zfvaKXmWlgxbWtTyXuuBcQzn6m51X6d3kim91g/k3UZ23m+u0qzlcXkIGlqKKZw17g66DT514pgne7YjrNefgq949O3eTBlrYTrfLd+dJT7WlZ3Cfjt+du5rvdKs5XF7C0QBmjXYNdvl79O7hVv08Wq86w3M/fd7O2V1vrpH+WcLmv0WTgxrF3eA9P+Lv1ly383c1d/DdmV1+pr21hFf+d0kO573/B5O6xSM/W0DVzxKe/y2au/63aLRELJzbleUDc5bwLOHdS8gyXbWXl9C3Hn+lCbCdXdFwTKdD3rHpg+ls4mdxp0M++QwfW9WzppgX3c6m3k2svyHz3hT7hP8rVo9ar+QdxWz/duyHVxdnOH48OQ6qeJ6DmzzyHw1e/BCp6efK9zq1PM/7SB9OZxPPTLBeJ4dVzX3i7izlh0/+iibjAdn3YABbLuW9RLy0hAhhP4TiYtRGg1MNHLfw2H3OmOmBQ89juNLFd1ud5zruOw9ffLQdiy7Wa/LJYz0HVjXOwSrnebA3Nr4N/++Pb3BF4leWkAv64eSwDAur3t33GE5n896u4z6anQ55cK6LjjDywaYFBzdj8rIVN3PCSSNf1/Ez3E9ud6Y4nOu6X/x3W0IuzZD8sqrxkmdAnQWXvE6/0yHf8ZQXhnOw8KjRT6XjNfTgSw8fC141PdjMV3GFRXdk0fpi32kJfdC6pA/K/ayNhqaaP67jvmvO9DoeGs4XlnjE8x7xnScfLSznKfYXvufchwfOY87srHM+/XdbQh8Wvg+Ji6vG0w2MPDhZ57nvNXid7XhoOE9YYnz6SR3y2OQpRkM+DzpY8mm97r5wxJzJWcp7LjU/YvsWZVyS/kn6v5YNYMsl7uGEm7+YcCE/nJxbibig+1lzXvoMkaZcx33XTI2MOx4ajud85fCrXsi5TR34WM5z63z3xeElTyzrD70q7z045saXBu9NsU/4HvSo9UreRczLS1gNqMrRng8r/RGvq6VGxh3v49L2wXd43EU2eVXMWW5d4x5f98sz79HruD+yhLqILsTDxfxwcm7Br1rnVv6qDrhKw3PgKuu4zq94nut4mXfOd/ic9x3a0vQ9eMQZvmvo/UeX8AKX8sPJYSHvWvid3dHrNDw/0nNc5Y+4qlWcKjfTefa678EjevVdQ+/LEvoQ/XDPy7/6pE7Gu7rJz3ikl9iM7+G61kjnFWq+B4/o9+mXUB9v5/GPXfkzrYrjOed7fsd3jVf0324J9RFmH3D3Q92jN+M+or57n2fD/+gS5sD98KzdM6jUynhXO/kZj/QS+x0x5/PHEJY8Vvmskcs8nC174dcz0vc92DqvAVd3+fx3wvwAfnjWpM+A/Cxy1UGOSz3nqeYPNc+5n1rE8LpevA5Hlrzn7vHplT6w5GXJYT0Hzmvktq39FmSV63uwyhnhqntcWkKEsDrU/Sr2xvyjipexY2daqjtf/kzTe01uxa8wVU66ebb37+f6HcljnQPOa56r8tRv7LstIR+Li+YwMgYnW31AcuLJ92ekVemh4ZroVVrgsMknP7IdR/l86UVWNZ7OT5zjnUO+tXZWi4nCU/4k1KX5GD4A93WPjONunxqu5dqOn2kJi46s6xCjp5q/yQXveit+nikOj2p6sJkfxdkr2Ev2HZYwB03MQHxg8kdP92HRrD7iqp5rSMd7cV96iQXf9Vfl0UiLvvL+cg/PuU/drep3Pxc0nu4noQ/KfX2YfFaGNvqgrrmrJbxrE6vH1CKu8J4b+egL4z4z4Qws+bRdfZTvaqn9Eb/DEuaH0AA8x8VXB5MfrYqluaNXadBnpYW23wO852a+OPCwfp5yowc+uIyTSz3zZayz8y2Bt8mn+0noH4IhyCrv8e1V+kxyuzPQ75Sc12nCRUuWJzlgUnc1RpczsOTvtY/W6/p56iUcfYzuQlV+pEOt4nkO3Ip1Xvor/FVMar9q/FcsoT7O7MOOPuCMm/VHaqU28eiMV6u97BLqY+w8fLyRrfRG+K5W6Xiu463mXesd/JdeQn201Wf3A6/iO9yor46zkh/pvmrt6ZZQg1z5GI5ZHb5zvtsf9bR79kjrHWpPuYQa7Hd8qF3Ne/GjBZlpj7hdjb/NYsEp9pe8bJd3zLLvv6JZJj3hf4smB6Mh+QfzoXle/ugZ8Ua1PMPjGc/r3pvnXc99x6/60tWDhZdxl+9w4IfWfhX1gct4QH6qn4T0yTD8o8hX3nMZq1Y96KmWOqmRsZ/nfuKqeNQLWskjL1s9wuvNhxzW61VO9cxnDKbKu37pFz2WuJ/67xNyGR+wfP8nwIful3aO8qOYWndZ8qkDT3ZUG+Gc5z5nVnZ2XnKkWz3K5+s4r2V+FKsG13FTv+mz4/kedJidvHrO5yOjgn9E+X64Yh4ujhi81MgYnGuhKYuu49wf6TlOfmI95hys9+C+c1JfcT7Cdw817AynemIz7jSG+UGPHc/3oMPs5Kt7bC+hH4jg7MPnR3SN9KWZ+CqXGI8T77H7OltxPuRcs/LhgU+LvvL+wksLH57Xveb5Zb+45wr3ZZZQl9GQ/ENl7DX53ZO8jFOnipPjsfv07b2ozlNpew6cc9zPetZG8ajmuomj9sXanT7yGX8Bfw2ebgnzwh7L9w+UsdfwdV3X8FiY1MgYnbSJ89h9Py994tTOWDg90tWL/+HY/aiRx8Kr6is1dIZWfeU7JPwpPtUSavh6VgYjTH6sLh5p+ln4nU7mwcvq8XrWPgBxNzDOq3y4neV8bIfbzT9arzv/KZewa9bz1cfqcs5Lv+Ps5F3TeZ4f+c6p/BH3HWo/uoQamA/ZDye/M1Q4K3aku8LvMCPdnVqnT35H69WwvgeP6L36Cf7xZxUFhirrh3t+pxHnjfyZ5ojb1WaaO/XuDPI7Wq+G9T14RO/smmu9xBLSMB99ZME+0o7Oo/bI855J68eXUJdnqH44OezOkODM7L2aO/wr2Ef2f+X83+L4Hjyih+lPQh3CsP1wctjdZuCN7K7mT+NHvas2exg+Frxif8nLkvfcZd9/RbMh4nuwQWuheX8Bv/xxrATD9sPJyTIYrJ9W5ai7RvrwZPMZ1RLr8YzX1bt89lzFfn760tWDpZ4xeeysDm5oc64ZD8i+BwPYcqm6z80SSk0D9sN94BJR3D3VIWBdBz/1nO++NDJGN23iZjH8GY6eOyt+anjfoxo9pK04YLrzqLf2LOF/P3/a+sdkYLOhgxvZ1PDY/ZGGaon1ftNPLNrK50uNM6h7Hr/TdS7YqdXybSyg9PyH0VR/AVDd59JPwqtDU4/58RTrmWlWzXd3TqzHnIOtNEa1qn/lxOEuqamaHmzWiat6lQN/2W4s4q8toS7nh48Gn4NYGVrqucaIP6qNNJznvjgZj3RUy94VSwObmqrl62e4X/VS5ZxzyT9LOB7baOijmqsmzmP3xcl4pKPaaAl9ESudPGsWr/SXGn7up59Ll/En8NbxH0a31f1M1W/5x7Gk/XAGLwH82cBX28umPHZfehl3ZyTOY/dTc1Tzs3wG+OLqzbmgiXUdzofrNXJuq7rnhr4Wj3cI/Fr0PfhauRZVc9haQgbMYBTzkHNLbWZHnFFtpDviXa1xHovXWXCyOsut1+7x0b1HY4X7lEuYg1+5yLthcgYZv9N9zxI+8dfMxcv4iVvfau0s4da4fhacS5fxz3bzfac9/RJ+39VfQzkXz+PXuMG8y6dZQrXqA8afX+H9Ecwi7bvc/KmWkKFq2Of5M4Fcvm4+/G0Wi4Jif8nLdnnHbPubv6Z5yiX0wcj3x2uen/krPDAzLergZatntV5xqxzLWNWUow8suIy7fIcDv2SZBXaB9LRLWPWeQ8q44iiXuIwdU9Uq3cTN4tQAj816FwtfcchhnV/lvI5f4ZSr8nBuLMuHvQHcJl5qCbP9reEYueKRwxq8dBPnsfsl2f7BWMGi0WGVzxeOrNc87/5M27Gt74vnfkv4p/C0S8jguv67oXV45TtN13J/puV153EO1nH0Qc555Do7wlLD7mjMOJ3Wl3wuXcZfwF+Dp1xCb7EaUJVzzsx3vvviZdxpJc5j91NzVOvOcg34WGqK/e20nAe3w27ltXTVuyDyckuYQ1y44w3ENfzDuX9DioRrqOSx+1XNz8EP+ZvQNd0HSA6b+SqeYcURJnFoDe0r/yTMC3vsPgMaDuLf4g4vsZ1+4jx2f9ZnYrvz0AGPJe82NYTl9Ro5t1Xdc0u+/0RcIDzlT8LZULr66L4rnBWMnzHCj2porGDAjqx09GBH2J3ao/W6s59yCbtmT/49J3CW8D2/60vd6izhS32u92z2LOF7fteXutVZwpf6XO/Z7FnCN/qu/G0Wy9UU+0tetss7Ztn3X8288u8JczCjgS4PZzJs/xB53ugM51W4ru75nfOqMzyHFpZaxl2+w4Gf2o3Fc62n/EnYDSPzGfvF3E/cLHZu5880su46o5rjKl/cik8O69wq53X8CqdclYfzxf4NS/jlwnf8cjaHmnGeU8XJ8dj9FW6FqXKdrvL5Ot9rnsenTux2VHPch+9/HN8U+8TT/iQcXX5U66/6599/EoOe7OqTWI9dz/Noe53ciq204FHDkk87qo9qqTONN2b5lEvoFxwNZlRzjfRHvFHNdRLnsfviZDzS8Zr7aKRFX3l/nes+fM/hj2pglu1ZwvGoRsMe1Vw1cR67L07GIx2vue8a7oMhh818Fc+w4giTOLS+2Fy6jL+AvwZP95MwL+yx+7pGxl+v9idKnMfu/4Tm1fPoDT6WvFv5/gjL63n55F0PDDXiqdXi8U7BfwBPt4RqjcuPBlPV/lzr1nsmzVEvt53PM8wCO2esIR6t1536lEvYNXvy7zmBs4Tv+V1f6lZnCV/qc71ns2cJ3/O7vtStzhK+1Od6z2bPEr7Rd+Vvs1iupthf8m6pe+6Sz69oXvn3hLo4A8FWwxjVRnjxqge9rn6FM9Ic1aqzVnL0joWTMXksdSz5bdvMdqbzlD8JZ8Ogjp1dMnGzeKan+kwj6645qjmu8sWt+OSwzq1yVb3CKVflnf/hX1xAcf+KJcyB+VDdT9woTp7H7qfGqJbYjDuu8vk612uel++a7oODS9xaLaG/LfC28LRL2F3eB+X+7dVuM5UmOewtq87k2R6jhXUFclivzXxxuocadoZTPbEZdxplPnvLuCT9k3zKJfR+fTDuC5Ox80a+89zf0RzxrtZWekYbS8+K/e20ZjyvdxplPpcu45L0T/LlltAHjT+4X1nyQbsvcMalQIFznvupOap1Z800vD7Tz7qfWdWUq/LO+/Bz6TK+IfxJPN0S5oUz/tP69y+Mn5V+9uWx++J57H7W8oyMxYWPdQ3PORdeV0cDHNyMybdWi8fbgm4LT7eEapHL7w7t9np/MiPNUe2Pwq034l2t3Z4yz+gsPdg5Yw3xaL3u1Kdcwq7Zk3/PCZwlfM/v+lK3Okv4Up/rPZs9S/ie3/WlbnWW8KU+13s2e5bwjb4rf5vFcjXF/pKX9XzyHDf1+dWM2ynpH8BTLuFoMKPa6M7Oc5zn8b0+8sHLVk9V9xx+xb2Sow8sGhmTlx3VHDf1cwYZDwSedgm7nq8MLTkeu68zM17tI3kZo5P5jMF1VviKQw7r/CpHfVQTRvUZBq0v9izhl3HcBKOhjmoulDiP3XdO5T8CK418/SyveV7+qOb15A3jjQWUztP+JGQ4eVnysrsP3I63o5lYjzkH+4jzpOFnpCY1bNaJR/VRDf6S3fw2T7mEftHRYEY110i/43X55CtOrMfuV1j0Eke+smDToq+8v5UG2Cu1jlPmzxKWY/mS5EN+SRaLlXWPU8Nj98XJGJ0uT92tY90HQw6b+SqeYcURJnFolXZzAaXxdD8J88Ieu8+AykFEcoWXmJC4CRPvsfsiZtzlbg6JhHTQwrqW55wKr6qv1Fxr6r/DEjJUhpOXJl8NNLEez3i7evf2eeU8v4/7aGG9do//aL2ul6f7Sdg1evLvO4GzhO/7bV/mZmcJX+ZTvW+jZwnf99u+zM3OEr7Mp3rfRs8SvtG35W+zWK6m2F/y2FENzJLVr2d4lwj/gJ5yCX0o8vPxeta6eMQZ1To95Tue5/Fdh5zsIx/0sGhnTF52VHPc1M+7ZDwQeNol7Hq+MrTkeOy+zsx4tQ/nuZ+ao1p3lufFTw0/Y1RzHedk3uPuPMd8+Ll0Gd8Q/iReagmrAf+5yrrnOu5LIeNONXEZO89r7u+cN8JKM988n3qXz77AVTxqN1aLx3tT7BNPu4TV5clh+2vVlY5HXnb1SWzG6GR+FsOrbHIdQw3rNfe97r4wGTtv6ufsMh4IPOUSer8+GPeFydh5I9957u9orvJmuKx3fYNLS8/K+zvTgec4tD237OfSZTwQOksYw1r9EInLmJlnfhbDS+s898GRw2a+imdYcYRJHFpfbMzx44/lL4A+eLolzAt77L6ulHF3zcR57P6jNOkjtSv9CgM/rbDgsa7pOefCq+orNdca+lpE3iHwa/HpllDtrQymGujXq32NflqTe3zt4p9o1EuFn+WYBXaGX60/Wq879ymXsGv25N9zAmcJ3/O7vtStzhK+1Od6z2bPEr7nd32pW50lfKnP9Z7NniV8o+/K32axXE2xv10+eeCWLb+eyd8ZTgSecgl9YD6YzHttcs/yI8BxXXIrtuN5Ht/1qpzXr/rS1YNFJ+Mu3+HAD20uXsYD8tMuYdVzDinjiqNc4jx2v8J+l2ae252TefEqLjms86qc1/ErnHJVHs6nzaXL+BN467zUEmb7S8NJUixlamRc0D9SicvYeVWtyjmn8juO8vk632ued3+m7djSz6XLuCT9k3zaJWRwXe/d0Dq88pVm6mTc6SUuY3i7eXiV7bSEpYat+I7L+oyX+DLW4vlbgm6TT7mE3mY3nC7v3M5PrmJ/O57nKw2v4ydulqeeFp20wimXb/KJ4RNjuzz1bfvqPwn9wt1wurxzO3/EHdVcL3EZg93Nw0vrOu6DI4fNfBcrnxyw1EZ1x376GwsoztP9JMwLZ8xgPi+84KRGxkh0eepuE5uxsFUOjVENTFpx4GH9HM85F96o7nh8eMRDe+GPYfSebgnVGJffHRqXqmyn2eUrjczNuFX/zsFP3d2Yc7C7/A7/aL3unKdcwq7Zk3/PCZwlfM/v+lK3Okv4Up/rPZt9miX0Ro7/f1/+xvg3zeMR/5hV/y778R9oVoW/abjnrmv/YJ0l/L+1QZ2F+r45/fgSdgfqp6a/juvyjqn8EY9axRvl4Mn643n8ru75e336wKKXcZfvcOBfxVb3aP847i5ViQib+YxX9Spelev0Zr2klsfuVzqjM8GnBnm3rlPhK2yFU67Ku/6nzy+sPxO/41T9/voS5iiySWJs4qs4sRk752rNNeR3Osrn61yveR5N6lnzelW7yb3bEnaDIS+7+8BNHlrYrFdxYjOG0+VVH9Xgux3hqWGd577X3RcmY+e9kl/dY/snoV/YBd2/Z2idTua9j/QTmzH43Ty8tOikFU65fJNPDB8e+Sr22iv5fkf6fuolzI9XXYCLuE1cxmCrfJUD31nnuA+eHDbzVTzDiiNM4tC6se/yx3Fe2GP3GdDNIIrEiDeqFVKfqRVeYkTOXMafBxSOsOCxruk5p8Or6is11xr677KEDJXh5KXJVwNNrMcVL3MZO7/yZ3jV83EOfmJ2Y87B7vI7/KP1unMena/6vuuP40c3ePTefwJnCd//Gz/9Dc8SPv0nev8GzxK+/zd++hueJXz6T/T+DZ4l/MVvzPCxtKLYX/KyXd4xr+bn/T/uyWVXL+ODSUGvrepxPlx4xG6prdiO53l81yMn+8gHPSzaGXf5Dgf+VWx1j+1f0VQiGkDmM+6GlDiP3a/OeLTm1fPoQ/zU8L5HNTSwic0Y3SqPxo19gl9YV/3++hLmoLxJ9xl64qt4h5dY1xvVHCe/wyqfr3O9lvlRzJnduc799N9pCRnc5+WKj7A1HPv3n9TkrB29xGbMGaN8V4ObdoSnhk0ucdYV+wvulW3eUXfZ/knoA0hBH1jWnDfynef+R7OL/562yktc9jWrgweXlp6V9xdeWviZR6fKv1quuuNDl9AHUh3m9c53nvvCZ7yiMeLN9GZ1znec+1nP2ixOPjFW/NSgVtp3+OM4L5wxF+/y1N0m1mP3xcnYddxPXMadVuIy9jPSFxY81s/xnHPhZb3Lw6VOPLVPsIDqMe/5kesK3aW4fIp1+U7H8xXXc/jOmflwZKtnlIdb8XZznIPd5Xf4bb1mDp3+d+Wrvu/64/i7Gj267zuBs4Tv+21f5mZnCV/mU71vo2cJ3/fbvszNzhK+zKd630bPEv7it2X4WG9FOd6VvGNezS/vr0tUhdHlGFjyuvxIi/PhJpY8NutdDF7WH8/jex1/VAOzY+kDCzfjLt/hwC/bX/59YXWP7V/RVCIaQOYz7oaUOI/dr874Lk3OxXbnZF74ikMOCy9j8rJZyxhMlXedL378A/ml9kNB1e/WElYC9J61jMHNrPPcn/G8nryMR1jVwGMd3/kdVvl80ejy3oNj8bHwiVv7yz/9vC/1nM/2EnLxFJvFeXDG6Ho+Nb028pOXMdwq7zn34XR2hKWGRWMUj2rwl2zx0Zd43wTKe+mY7SX03lzQ/Q/hi5d3Hff93JmfvIzhZ34Ww0sLL61wyuULH3wVj2rgl+27/ST0i/ug3BcmY+eNfOe5P+JkLXkZg8+84uoF31nXcR88OWzmq3iGFUeYxKFV2os/GEqti8mq31//SZhNeey+7pxxN4fEZbyqVfFGZ4LH+jmecw3leT0Pd1ZLzjT+5Z+K1Ry2lnB1MNVBo+Ew6Io3ql3V5B738Edcr3EnrNfu8R+td08vO9yq7+0l3DnwYM8EcgJnCXMiJ/7xCZwl/PGRnwNzAmcJcyIn/vEJnCX88ZGfA3MCZwlzIj8YM3ysH60cb5X33Kv75f11qaowuiwDSx75EbeqwXM9z3m+4lc553vd8/ijutfu8bkDFq2MyWNndXCvYqv7bP+KphLxAczqjpWfeI87PzUydl6eMaolNnVnsbRT3zWzlnGlP8KoNqpXer+dq/rdWsJKIC+1gkmOx853X5iMned+4jK+inVe+t0ZyucLt8tTl+10qY3qnzr8pyRuP4s/61T9bi+hD65qvzqkwmUOXc+nVsaOdT9xGYOt8srxgluxlRY8atjMd7HyyQH7qra6z/YS+uVLwTv/Q3LXdH/ng6zyEud3u3Ieelg0FPvLOY4DSw2bGPJb1n8C4m8JPA5c3ecs4WC+1cAquOPcB0sOm/kuVj45YKmN6o59Fr/q99eXMJvyuPNnA3UeHys5ialwFSZ1iIUFj3VNz8Gh7lxq5NxSc57nXsGv5rC1hH75FPNh4a8OBbxres7z92g6t9P0cx1/1ecc7FWd5D1aL/W/K6763l7C72ru6P4dEzhL+Hd856e+5VnCp/48f0dzZwn/ju/81Lc8S/jUn+fvaO4s4S9+Z4aP9VaU413JO+bV/PL+ukRVGF2OgSWvy4+0OB8uWOK01GfWeY71PL7X5ZOXfdSDFhbdjLt8hwPf2l/+T0iyr+oe27+iqUR0UOYzzmaIE+ex+9UZaKQd8Ua1nTPyTLipT94t3ApLLW2FVa7KJ/cjfuA/UKX+YrLqd2sJK4Hu7B2sazgPH+u4kZ/4jJ3rNfcds+J3XOXzRa/LU8fOtMFN7RP8VKzusr2EPrju0tVBHZY8usSy5Hb1Ep8xZ2Resb/gVmxqOYcaltosFi4xcO+yv/hTsbrP9hL65UvBOy/omvhYP3vkJz5juJmfxfDSwksrnHL5wge/GoO7bN/lJ6EPYDZEx676run+Kl+45GWMVuZnMby0znMfHDls5qt4hhVHmMShdWPv/OFwo3cxUfX7sJ+EKZ5x13PiPHZf/IyvaMKptDKXMdzKCgseKxw+NrnK83qNnNuq7rnSf4Kfft6X7pPP1hKKPBtKV8+DPa44nnPfeSN/xlG9ema8ijPKcQ52hN2pPVpv5+x7sFXfSzOvMwAAAiRJREFU20t4TwOHeyZwlvDswK9P4Czhr3+C08BZwrMDvz6Bs4S//glOA2cJf3EHGD7WW1GOdyXvmFfzy/vrElVhdDkGlrwuP9LifLiOJZfWMZ3vHMd4Hp86sVtq91pp6sGil3GX73Dgl+wT/M6wusf2r2gqEQ0g8xl3Q0rcblzpjjSu1qpzMift1BeGHBZexuQrW2GVq/IV/3/+e1H3S/D3Jat+t5awEuja3cG6RvKIsY7t/MRm7LyrNdeQ3+kony/cLk8d3Zm245f8V19CH1x1YepVbZTreORlV5/EZoxOl1d9VIPvdoSnhoU3i8HJJtZrW/7GHLd0F8HVPe76SVgJ0suoBqayySPGVpzMJTZj8F1e9VENPhZsWnSU9zd5XUweHY8v+b+8gN09XmYJd4bOMsDJeJbvhgUvreu7D44cNvNVPMOKI0zi0HpWW/X7sCVM8Yy7oSRuFnc6nl/RSMyI77XOlx6aWGHxsclXnvdKLTltrJ+C7/CTUBdkYNVQR7V2OAPNq3qzPql3PVV367CzPFrYGX61/mi91XPvxVV9b/0kvLeBwz8TOEt4duDXJ3CW8Nc/wWngLOHZgV+fQLuEv97ZaeCvnsDHX0z+6gmcy//6BM4S/vonOA2cJTw78OsTOEv465/gNHCW8OzAr0/gLOGvf4LTwFnCswO/PoGzhL/+CU4DZwnPDvz6BM4S/vonOA2cJTw78OsTOEv465/gNPD/AfkR+fnZxCSFAAAAAElFTkSuQmCC;" vertex="1" parent="WIyWlLk6GJQsqaUBKTNV-1">
          <mxGeometry x="510" y="450" width="161" height="484" as="geometry"/>
        </mxCell>
      </root>
    </mxGraphModel>
  </diagram>
</mxfile>
